{
	"asset":{
		"copyright":"@serufu_yua",
		"generator":"Khronos glTF Blender I/O v4.5.51",
		"version":"2.0"
	},
	"extensionsUsed":[
		"KHR_materials_emissive_strength"
	],
	"scene":0,
	"scenes":[
		{
			"name":"Scene",
			"nodes":[
				0,
				1
			]
		}
	],
	"nodes":[
		{
			"mesh":0,
			"name":"Icosphere.Mesh"
		},
		{
			"mesh":1,
			"name":"Icosphere.Grid"
		}
	],
	"materials":[
		{
			"doubleSided":true,
			"name":"black"
		},
		{
			"doubleSided":true,
			"emissiveFactor":[
				1,
				1,
				1
			],
			"extensions":{
				"KHR_materials_emissive_strength":{
					"emissiveStrength":10
				}
			},
			"name":"white.light",
			"pbrMetallicRoughness":{
				"baseColorFactor":[
					0,
					0,
					0,
					1
				]
			}
		}
	],
	"meshes":[
		{
			"name":"Icosphere.001",
			"primitives":[
				{
					"attributes":{
						"POSITION":0,
						"NORMAL":1,
						"TEXCOORD_0":2
					},
					"indices":3,
					"material":0
				}
			]
		},
		{
			"name":"Icosphere.002",
			"primitives":[
				{
					"attributes":{
						"POSITION":4
					},
					"indices":5,
					"material":1,
					"mode":1
				}
			]
		}
	],
	"accessors":[
		{
			"bufferView":0,
			"componentType":5126,
			"count":60,
			"max":[
				0.4253200590610504,
				0.44721245765686035,
				0.5
			],
			"min":[
				-0.4253200590610504,
				-0.44721245765686035,
				-0.5
			],
			"type":"VEC3"
		},
		{
			"bufferView":1,
			"componentType":5126,
			"count":60,
			"type":"VEC3"
		},
		{
			"bufferView":2,
			"componentType":5126,
			"count":60,
			"type":"VEC2"
		},
		{
			"bufferView":3,
			"componentType":5123,
			"count":60,
			"type":"SCALAR"
		},
		{
			"bufferView":4,
			"componentType":5126,
			"count":12,
			"max":[
				0.4253200590610504,
				0.44721245765686035,
				0.5
			],
			"min":[
				-0.4253200590610504,
				-0.44721245765686035,
				-0.5
			],
			"type":"VEC3"
		},
		{
			"bufferView":5,
			"componentType":5123,
			"count":60,
			"type":"SCALAR"
		}
	],
	"bufferViews":[
		{
			"buffer":0,
			"byteLength":720,
			"byteOffset":0,
			"target":34962
		},
		{
			"buffer":0,
			"byteLength":720,
			"byteOffset":720,
			"target":34962
		},
		{
			"buffer":0,
			"byteLength":480,
			"byteOffset":1440,
			"target":34962
		},
		{
			"buffer":0,
			"byteLength":120,
			"byteOffset":1920,
			"target":34963
		},
		{
			"buffer":0,
			"byteLength":144,
			"byteOffset":2040,
			"target":34962
		},
		{
			"buffer":0,
			"byteLength":120,
			"byteOffset":2184,
			"target":34963
		}
	],
	"buffers":[
		{
			"byteLength":2304,
			"uri":"sphere.bin"
		}
	]
}
