{
	"asset":{
		"copyright":"@serufu_yua",
		"generator":"Khronos glTF Blender I/O v4.5.51",
		"version":"2.0"
	},
	"extensionsUsed":[
		"KHR_materials_emissive_strength"
	],
	"scene":0,
	"scenes":[
		{
			"name":"Scene",
			"nodes":[
				0,
				1,
				2
			]
		}
	],
	"nodes":[
		{
			"mesh":0,
			"name":"Icosphere.Mesh.Star"
		},
		{
			"mesh":1,
			"name":"Icosphere.Grid.Star"
		},
		{
			"mesh":2,
			"name":"Star",
			"rotation":[
				0.7071068286895752,
				0,
				0,
				0.7071068286895752
			],
			"translation":[
				0,
				0,
				0.5099999904632568
			]
		}
	],
	"materials":[
		{
			"doubleSided":true,
			"name":"black"
		},
		{
			"doubleSided":true,
			"emissiveFactor":[
				1,
				1,
				1
			],
			"extensions":{
				"KHR_materials_emissive_strength":{
					"emissiveStrength":10
				}
			},
			"name":"white.light",
			"pbrMetallicRoughness":{
				"baseColorFactor":[
					0,
					0,
					0,
					1
				]
			}
		}
	],
	"meshes":[
		{
			"name":"Icosphere.003",
			"primitives":[
				{
					"attributes":{
						"POSITION":0,
						"NORMAL":1,
						"TEXCOORD_0":2
					},
					"indices":3,
					"material":0
				}
			]
		},
		{
			"name":"Icosphere.004",
			"primitives":[
				{
					"attributes":{
						"POSITION":4
					},
					"indices":5,
					"material":1,
					"mode":1
				}
			]
		},
		{
			"name":"Circle.001",
			"primitives":[
				{
					"attributes":{
						"POSITION":6
					},
					"indices":7,
					"material":1,
					"mode":1
				}
			]
		}
	],
	"accessors":[
		{
			"bufferView":0,
			"componentType":5126,
			"count":60,
			"max":[
				0.4253200590610504,
				0.44721245765686035,
				0.5
			],
			"min":[
				-0.4253200590610504,
				-0.44721245765686035,
				-0.5
			],
			"type":"VEC3"
		},
		{
			"bufferView":1,
			"componentType":5126,
			"count":60,
			"type":"VEC3"
		},
		{
			"bufferView":2,
			"componentType":5126,
			"count":60,
			"type":"VEC2"
		},
		{
			"bufferView":3,
			"componentType":5123,
			"count":60,
			"type":"SCALAR"
		},
		{
			"bufferView":4,
			"componentType":5126,
			"count":11,
			"max":[
				0.4253200590610504,
				0.44721245765686035,
				0.22360752522945404
			],
			"min":[
				-0.4253200590610504,
				-0.44721245765686035,
				-0.5
			],
			"type":"VEC3"
		},
		{
			"bufferView":5,
			"componentType":5123,
			"count":50,
			"type":"SCALAR"
		},
		{
			"bufferView":6,
			"componentType":5126,
			"count":15,
			"max":[
				0.2955437898635864,
				-0.06268370151519775,
				0.2514053285121918
			],
			"min":[
				-0.29554376006126404,
				-0.1961800754070282,
				-0.310754656791687
			],
			"type":"VEC3"
		},
		{
			"bufferView":7,
			"componentType":5123,
			"count":40,
			"type":"SCALAR"
		}
	],
	"bufferViews":[
		{
			"buffer":0,
			"byteLength":720,
			"byteOffset":0,
			"target":34962
		},
		{
			"buffer":0,
			"byteLength":720,
			"byteOffset":720,
			"target":34962
		},
		{
			"buffer":0,
			"byteLength":480,
			"byteOffset":1440,
			"target":34962
		},
		{
			"buffer":0,
			"byteLength":120,
			"byteOffset":1920,
			"target":34963
		},
		{
			"buffer":0,
			"byteLength":132,
			"byteOffset":2040,
			"target":34962
		},
		{
			"buffer":0,
			"byteLength":100,
			"byteOffset":2172,
			"target":34963
		},
		{
			"buffer":0,
			"byteLength":180,
			"byteOffset":2272,
			"target":34962
		},
		{
			"buffer":0,
			"byteLength":80,
			"byteOffset":2452,
			"target":34963
		}
	],
	"buffers":[
		{
			"byteLength":2532,
			"uri":"sphere_star.bin"
		}
	]
}
