{
	"asset":{
		"generator":"Khronos glTF Blender I/O v4.5.51",
		"version":"2.0"
	},
	"extensionsUsed":[
		"KHR_materials_emissive_strength"
	],
	"scene":0,
	"scenes":[
		{
			"name":"Scene",
			"nodes":[
				0
			]
		}
	],
	"nodes":[
		{
			"mesh":0,
			"name":"Tunel.Rotary.Grid"
		}
	],
	"materials":[
		{
			"doubleSided":true,
			"emissiveFactor":[
				1,
				1,
				1
			],
			"extensions":{
				"KHR_materials_emissive_strength":{
					"emissiveStrength":10
				}
			},
			"name":"white.mat",
			"pbrMetallicRoughness":{
				"baseColorFactor":[
					0,
					0,
					0,
					1
				]
			}
		}
	],
	"meshes":[
		{
			"name":"Cylinder.003",
			"primitives":[
				{
					"attributes":{
						"POSITION":0
					},
					"indices":1,
					"material":0,
					"mode":1
				}
			]
		}
	],
	"accessors":[
		{
			"bufferView":0,
			"componentType":5126,
			"count":198,
			"max":[
				0.5000000596046448,
				0.4330127239227295,
				5.960464477539063e-08
			],
			"min":[
				-0.5000000596046448,
				-0.4330127239227295,
				-32
			],
			"type":"VEC3"
		},
		{
			"bufferView":1,
			"componentType":5123,
			"count":780,
			"type":"SCALAR"
		}
	],
	"bufferViews":[
		{
			"buffer":0,
			"byteLength":2376,
			"byteOffset":0,
			"target":34962
		},
		{
			"buffer":0,
			"byteLength":1560,
			"byteOffset":2376,
			"target":34963
		}
	],
	"buffers":[
		{
			"byteLength":3936,
			"uri":"tunnel_rotary.bin"
		}
	]
}
