<?xml version="1.0" encoding="UTF-8"?>
<!-- Generator: Blender, SVG Export for Grease Pencil - v2.0 -->
<!DOCTYPE svg PUBLIC "-//W3C//DTD SVG 1.1//EN" "http://www.w3.org/Graphics/SVG/1.1/DTD/svg11.dtd">
<svg version="1.1" x="0px" y="0px" xmlns="http://www.w3.org/2000/svg" width="850.887817px" height="850.887695px" viewBox="0 0 850.887817 850.887695">
	<g id="blender_frame.1">
		<g id="blender_object.Star.Flat.001.1.uuid_0x0">
			<g id="layer.Frame.Lines.uuid_0x1">
				<path d="M749.259155,750.109619L749.586060,749.897095L749.865234,749.624939L750.085815,749.303528L750.239624,748.945251L750.320557,748.563843L750.325439,748.174011L750.254150,747.790649L750.109619,747.428589L749.897095,747.101746L749.624878,746.822632L749.303589,746.601929L748.945190,746.448120L748.563843,746.367310L748.173950,746.362305L747.790649,746.433533L747.428589,746.578186L618.037842,813.648254L602.652832,818.488770L566.560547,830.059692L425.443878,830.059692L284.327179,830.059692L248.245148,818.492004L232.849762,813.648254L104.019257,746.868530L37.239471,618.037964L32.398987,602.652832L20.828033,566.560547L20.828033,425.443817L20.828033,284.327148L32.395660,248.245117L37.239410,232.849731L104.019135,104.019043L232.849762,37.239380L248.234833,32.398926L284.327179,20.827881L425.443878,20.827881L566.560547,20.827881L602.642456,32.395630L618.037842,37.239380L746.868530,104.019043L813.648193,232.849609L818.488770,248.234741L830.059692,284.327026L830.059692,425.443756L830.059692,566.560486L818.492065,602.642578L813.648315,618.037964L746.578125,747.428589L746.433594,747.790649L746.362305,748.174011L746.367310,748.563843L746.448120,748.945251L746.601807,749.303528L746.822632,749.624939L747.101685,749.897095L747.428589,750.109619L747.790649,750.254272L748.173950,750.325439L748.563843,750.320496L748.945190,750.239624L749.303589,750.085876L749.624878,749.865234L749.897095,749.586060L750.109619,749.259155L817.259277,619.714966L822.281494,603.851685L833.942383,567.478638L834.037231,425.443756L834.037231,284.016113L822.281372,247.035889L817.390625,231.490967L750.109619,101.628418L749.750122,101.137451L749.259155,100.777954L619.714966,33.628418L603.851807,28.606201L567.478760,16.945312L425.443878,16.850342L284.016205,16.850342L247.035919,28.606201L231.491119,33.496948L101.628571,100.778076L101.137543,101.137451L100.778107,101.628540L33.628448,231.172729L28.606262,247.035889L16.945374,283.409058L16.850433,425.443817L16.850433,566.871582L28.606262,603.851807L33.497070,619.396606L100.778168,749.259155L101.137543,749.750244L101.628571,750.109619L231.172699,817.259277L247.035919,822.281433L283.408966,833.942383L425.443878,834.037292L566.871582,834.037292L603.851807,822.281433L619.396606,817.390686z" fill="#000000" stroke="none" fill-opacity="1" />
				<path d="M739.834595,740.758728L740.167358,740.555298L740.453857,740.290955L740.683350,739.975708L740.846924,739.621826L740.938232,739.242798L740.953979,738.853271L740.893311,738.468140L740.758789,738.102173L740.555298,737.769592L740.291016,737.483032L739.975708,737.253540L739.621948,737.089966L739.242920,736.998657L738.853394,736.982910L738.468140,737.043579L738.102173,737.178101L636.149780,786.506104L786.506104,636.149902L737.178223,738.102173L737.043579,738.468140L736.983032,738.853271L736.998657,739.242798L737.090088,739.621826L737.253540,739.975708L737.483032,740.290955L737.769653,740.555298L738.102173,740.758728L738.468140,740.893311L738.853394,740.953918L739.242920,740.938232L739.621948,740.846863L739.975708,740.683289L740.291016,740.453857L740.555298,740.167297L740.758789,739.834595L795.213257,627.286621L795.349854,626.912720L795.409424,626.519165L795.389160,626.121582L795.290283,625.735962L795.116577,625.377808L794.875000,625.061401L794.575317,624.799438L794.229370,624.602478L793.851196,624.478271L793.455933,624.431885L793.059204,624.465149L792.677124,624.576721L792.324829,624.762207L792.016602,625.014160L625.014038,792.016602L624.762207,792.324829L624.576782,792.677002L624.465088,793.059143L624.431885,793.455811L624.478271,793.851196L624.602417,794.229370L624.799438,794.575317L625.061401,794.875000L625.377808,795.116577L625.735962,795.290283L626.121582,795.389160L626.519165,795.409302L626.912720,795.349854L627.286621,795.213257z" fill="#000000" stroke="none" fill-opacity="1" />
				<path d="M112.785492,737.178223L112.419586,737.043579L112.034393,736.982971L111.644867,736.998657L111.265839,737.090088L110.911896,737.253662L110.596710,737.483093L110.332367,737.769653L110.128998,738.102295L109.994354,738.468140L109.933746,738.853394L109.949432,739.242920L110.040802,739.621887L110.204437,739.975830L110.433868,740.291016L110.720428,740.555420L111.053070,740.758789L223.600983,795.213257L223.974884,795.349854L224.368500,795.409302L224.766083,795.389160L225.151703,795.290283L225.509796,795.116577L225.826202,794.875000L226.088226,794.575317L226.285187,794.229370L226.409393,793.851196L226.455841,793.455811L226.422516,793.059143L226.310883,792.677063L226.125458,792.324829L225.873566,792.016602L58.871124,625.014160L58.562927,624.762207L58.210724,624.576782L57.828583,624.465210L57.431885,624.431885L57.036560,624.478271L56.658386,624.602478L56.312500,624.799500L56.012726,625.061462L55.771210,625.377869L55.597473,625.736023L55.498566,626.121582L55.478394,626.519165L55.537872,626.912781L55.674530,627.286682L110.128998,739.834717L110.332367,740.167358L110.596710,740.453857L110.911896,740.683350L111.265839,740.846924L111.644867,740.938354L112.034393,740.953979L112.419586,740.893372L112.785492,740.758789L113.118073,740.555420L113.404633,740.291016L113.634064,739.975830L113.797760,739.621887L113.889069,739.242920L113.904755,738.853394L113.844147,738.468140L113.709564,738.102295L64.381622,636.149902L214.737885,786.506104z" fill="#000000" stroke="none" fill-opacity="1" />
				<path d="M258.321869,804.516724L257.939423,804.440918L257.549591,804.441162L257.167206,804.517578L256.807159,804.666931L256.483124,804.883789L256.207611,805.159668L255.991241,805.484009L255.842255,805.844299L255.766510,806.226746L255.766754,806.616638L255.843048,806.998901L255.992523,807.359009L256.209320,807.683044L256.485199,807.958557L256.809479,808.174927L257.169769,808.323853L283.440094,816.273560L425.443878,816.358826L566.871582,816.358826L593.717896,808.323853L594.321167,808.021790L594.788696,807.535400L603.706055,794.365173L794.365234,603.706055L807.535400,594.788574L808.021851,594.321045L808.323853,593.717834L816.273560,567.447571L816.358765,425.443756L816.358765,284.016113L808.323853,257.169800L808.021851,256.566528L807.535400,256.098999L794.365112,247.181519L603.706055,56.522339L594.788696,43.352173L594.321167,42.865845L593.717896,42.563599L567.447510,34.614014L425.443878,34.528809L284.016205,34.528809L257.169769,42.563721L256.566559,42.865845L256.099030,43.352173L247.181610,56.522339L56.522491,247.181519L43.352356,256.098999L42.865936,256.566528L42.563812,257.169800L34.614105,283.440186L34.528870,425.443817L34.528870,566.871582L42.563812,593.717896L42.865997,594.321167L43.352356,594.788696L56.522583,603.706116L247.181610,794.365173L256.098969,807.535400L256.348175,807.835266L256.651093,808.080750L256.996063,808.262390L257.369781,808.373291L257.758026,808.409119L258.145782,808.368530L258.518158,808.253052L258.860931,808.067139L259.160797,807.817993L259.406219,807.515076L259.587982,807.170105L259.698761,806.796326L259.734650,806.408081L259.694061,806.020386L259.578583,805.647949L259.392670,805.305298L250.368927,791.977905L59.201080,600.759338L46.166595,591.890503L38.506500,566.577271L38.506500,425.443817L38.506500,284.310547L46.166595,258.997070L58.909698,250.368896L250.128326,59.200928L258.997162,46.166504L284.310516,38.506470L425.443878,38.506470L566.577148,38.506470L591.890625,46.166504L600.518677,58.909668L791.686646,250.128296L804.721069,258.997070L812.381226,284.310425L812.381226,425.443756L812.381226,566.577148L804.721069,591.890503L791.978027,600.518738L600.759277,791.686707L591.890625,804.721069L566.577148,812.381226L425.443878,812.381226L284.310516,812.381226z" fill="#000000" stroke="none" fill-opacity="1" />
				<path d="M111.053070,110.128784L110.720428,110.332275L110.433868,110.596680L110.204437,110.911865L110.040802,111.265747L109.949432,111.644775L109.933746,112.034302L109.994354,112.419434L110.128998,112.785400L110.332367,113.117920L110.596710,113.404663L110.911896,113.634033L111.265839,113.797607L111.644867,113.889038L112.034393,113.904663L112.419586,113.844116L112.785492,113.709473L214.737823,64.381470L64.381592,214.737793L113.709564,112.785400L113.844147,112.419434L113.904755,112.034302L113.889069,111.644775L113.797760,111.265747L113.634064,110.911865L113.404633,110.596680L113.118073,110.332275L112.785492,110.128784L112.419586,109.994263L112.034393,109.933716L111.644867,109.949341L111.265839,110.040649L110.911896,110.204346L110.596710,110.433838L110.332367,110.720337L110.128998,111.052979L55.674500,223.600952L55.537872,223.974854L55.478394,224.368530L55.498505,224.766113L55.597443,225.151611L55.771088,225.509766L56.012665,225.826172L56.312378,226.088257L56.658295,226.285156L57.036499,226.409424L57.431854,226.455811L57.828583,226.422485L58.210663,226.310913L58.562866,226.125488L58.871124,225.873535L225.873566,58.870972L226.125458,58.562744L226.310883,58.210571L226.422516,57.828491L226.455841,57.431763L226.409393,57.036377L226.285187,56.658203L226.088226,56.312256L225.826202,56.012695L225.509796,55.771118L225.151703,55.597412L224.766083,55.498413L224.368500,55.478271L223.974884,55.537842L223.600983,55.674316z" fill="#000000" stroke="none" fill-opacity="1" />
				<path d="M738.102173,113.709473L738.468018,113.844116L738.853271,113.904663L739.242798,113.889038L739.621826,113.797607L739.975708,113.634033L740.291016,113.404663L740.555298,113.117920L740.758667,112.785400L740.893311,112.419434L740.953979,112.034302L740.938232,111.644775L740.846924,111.265747L740.683228,110.911865L740.453857,110.596680L740.167236,110.332275L739.834595,110.128784L627.286621,55.674316L626.912720,55.537842L626.519165,55.478271L626.121582,55.498413L625.735962,55.597412L625.377808,55.771118L625.061401,56.012695L624.799438,56.312256L624.602417,56.658203L624.478271,57.036377L624.431885,57.431763L624.465088,57.828491L624.576782,58.210571L624.762207,58.562744L625.014038,58.870972L792.016602,225.873535L792.324829,226.125366L792.677124,226.310913L793.059082,226.422485L793.455933,226.455688L793.851074,226.409302L794.229370,226.285156L794.575317,226.088135L794.875000,225.826172L795.116577,225.509766L795.290283,225.151611L795.389160,224.765991L795.409302,224.368408L795.349854,223.974854L795.213135,223.600952L740.758667,111.052979L740.555298,110.720337L740.291016,110.433838L739.975708,110.204346L739.621826,110.040649L739.242798,109.949341L738.853271,109.933716L738.468018,109.994263L738.102173,110.128784L737.769653,110.332275L737.483032,110.596680L737.253540,110.911865L737.089966,111.265747L736.998535,111.644775L736.982910,112.034302L737.043579,112.419434L737.178101,112.785400L786.506104,214.737671L636.149902,64.381470z" fill="#000000" stroke="none" fill-opacity="1" />
			</g>
			<g id="layer.Frame.Fills.uuid_0x2">
				<polygon points="247.637909,820.385864 257.745819,806.420288 248.722015,793.093018 237.918365,803.016235 232.087982,815.493530" fill="#FEFEFE" stroke="none" fill-opacity="1" />
				<polygon points="111.919281,738.968506 102.543915,748.343872 232.087982,815.493530 237.918365,803.016235 224.467255,793.422913" fill="#FEFEFE" stroke="none" fill-opacity="1" />
				<polygon points="284.016205,832.048462 284.016205,814.369995 257.745819,806.420288 247.637909,820.385864" fill="#FEFEFE" stroke="none" fill-opacity="1" />
				<polygon points="793.422974,626.420410 803.016235,612.969238 793.093140,602.165588 602.165649,793.093018 612.969238,803.016235 626.420410,793.422913" fill="#FEFEFE" stroke="none" fill-opacity="1" />
				<polygon points="425.443878,814.369995 284.016205,814.369995 284.016205,832.048462 425.443878,832.048462" fill="#FEFEFE" stroke="none" fill-opacity="1" />
				<polygon points="603.249634,820.385864 618.799683,815.493530 612.969238,803.016235 602.165649,793.093018 593.141846,806.420288" fill="#FEFEFE" stroke="none" fill-opacity="1" />
				<polygon points="738.968384,738.968384 626.420410,793.422913 612.969238,803.016235 618.799683,815.493530 748.343872,748.343872" fill="#FEFEFE" stroke="none" fill-opacity="1" />
				<polygon points="566.871582,832.048462 603.249634,820.385864 593.141846,806.420288 566.871582,814.369995" fill="#FEFEFE" stroke="none" fill-opacity="1" />
				<polygon points="57.464752,224.467163 47.871490,237.918335 57.794708,248.722046 248.722015,57.794556 237.918365,47.871338 224.467255,57.464722" fill="#FEFEFE" stroke="none" fill-opacity="1" />
				<polygon points="425.443878,814.369995 425.443878,832.048462 566.871582,832.048462 566.871582,814.369995" fill="#FEFEFE" stroke="none" fill-opacity="1" />
				<polygon points="247.637909,30.501709 232.087982,35.394043 237.918365,47.871338 248.722015,57.794556 257.745819,44.467285" fill="#FEFEFE" stroke="none" fill-opacity="1" />
				<polygon points="111.919281,111.919189 224.467255,57.464722 237.918365,47.871338 232.087982,35.394043 102.543793,102.543823" fill="#FEFEFE" stroke="none" fill-opacity="1" />
				<polygon points="284.016205,18.839233 247.637909,30.501709 257.745819,44.467285 284.016205,36.517578" fill="#FEFEFE" stroke="none" fill-opacity="1" />
				<polygon points="793.422974,224.467163 626.420410,57.464722 612.969238,47.871338 602.165649,57.794556 793.093018,248.722046 803.016235,237.918335" fill="#FEFEFE" stroke="none" fill-opacity="1" />
				<polygon points="425.443878,36.517578 425.443878,18.839233 284.016205,18.839233 284.016205,36.517578" fill="#FEFEFE" stroke="none" fill-opacity="1" />
				<polygon points="603.249634,30.501709 593.141846,44.467285 602.165649,57.794556 612.969238,47.871338 618.799683,35.394043" fill="#FEFEFE" stroke="none" fill-opacity="1" />
				<polygon points="738.968384,111.919189 748.343872,102.543701 618.799683,35.394043 612.969238,47.871338 626.420410,57.464722" fill="#FEFEFE" stroke="none" fill-opacity="1" />
				<polygon points="566.871582,18.839233 566.871582,36.517578 593.141846,44.467285 603.249634,30.501709" fill="#FEFEFE" stroke="none" fill-opacity="1" />
				<polygon points="425.443878,36.517578 566.871582,36.517578 566.871582,18.839233 425.443878,18.839233" fill="#FEFEFE" stroke="none" fill-opacity="1" />
				<polygon points="30.501831,247.637939 44.467407,257.745850 57.794708,248.722046 47.871490,237.918335 35.394165,232.088013" fill="#FEFEFE" stroke="none" fill-opacity="1" />
				<polygon points="111.919281,111.919189 102.543793,102.543823 35.394165,232.088013 47.871490,237.918335 57.464752,224.467163" fill="#FEFEFE" stroke="none" fill-opacity="1" />
				<polygon points="18.839233,284.016113 36.517700,284.016113 44.467407,257.745850 30.501831,247.637939" fill="#FEFEFE" stroke="none" fill-opacity="1" />
				<polygon points="36.517700,425.443817 36.517700,284.016113 18.839233,284.016113 18.839233,425.443817" fill="#FEFEFE" stroke="none" fill-opacity="1" />
				<polygon points="30.501831,603.249756 35.394196,618.799744 47.871490,612.969360 57.794739,602.165649 44.467407,593.141846" fill="#FEFEFE" stroke="none" fill-opacity="1" />
				<polygon points="111.919281,738.968506 57.464844,626.420532 47.871490,612.969360 35.394196,618.799744 102.543915,748.343872" fill="#FEFEFE" stroke="none" fill-opacity="1" />
				<polygon points="18.839233,566.871582 30.501831,603.249756 44.467407,593.141846 36.517700,566.871582" fill="#FEFEFE" stroke="none" fill-opacity="1" />
				<polygon points="36.517700,425.443817 18.839233,425.443817 18.839233,566.871582 36.517700,566.871582" fill="#FEFEFE" stroke="none" fill-opacity="1" />
				<polygon points="820.385864,247.637817 815.493530,232.087891 803.016235,237.918335 793.093018,248.722046 806.420410,257.745728" fill="#FEFEFE" stroke="none" fill-opacity="1" />
				<polygon points="738.968384,111.919189 793.422974,224.467163 803.016235,237.918335 815.493530,232.087891 748.343872,102.543701" fill="#FEFEFE" stroke="none" fill-opacity="1" />
				<polygon points="832.048584,284.016113 820.385864,247.637817 806.420410,257.745728 814.369995,284.016113" fill="#FEFEFE" stroke="none" fill-opacity="1" />
				<polygon points="814.369995,425.443756 832.048584,425.443756 832.048584,284.016113 814.369995,284.016113" fill="#FEFEFE" stroke="none" fill-opacity="1" />
				<polygon points="820.385986,603.249695 806.420410,593.141785 793.093140,602.165588 803.016235,612.969238 815.493652,618.799683" fill="#FEFEFE" stroke="none" fill-opacity="1" />
				<polygon points="738.968384,738.968384 748.343872,748.343872 815.493652,618.799683 803.016235,612.969238 793.422974,626.420410" fill="#FEFEFE" stroke="none" fill-opacity="1" />
				<polygon points="832.048584,566.871460 814.369995,566.871460 806.420410,593.141785 820.385986,603.249695" fill="#FEFEFE" stroke="none" fill-opacity="1" />
				<polygon points="814.369995,425.443756 814.369995,566.871460 832.048584,566.871460 832.048584,425.443756" fill="#FEFEFE" stroke="none" fill-opacity="1" />
				<polygon points="57.464844,626.420532 224.467255,793.422913 237.918365,803.016235 248.722015,793.093018 57.794739,602.165649 47.871490,612.969360" fill="#FEFEFE" stroke="none" fill-opacity="1" />
			</g>
			<g id="layer.Star.Lines.uuid_0x3">
				<path d="M427.140472,57.577881L426.905365,57.266846L426.614166,57.007568L426.277924,56.810181L425.909698,56.682251L425.523529,56.628418L425.134308,56.651123L424.756989,56.749268L424.406036,56.919067L424.095001,57.154175L423.835846,57.445312L423.638397,57.781616L423.510345,58.149780L423.456573,58.535889L423.479279,58.925171L423.577423,59.302490L423.747223,59.653442L444.172821,93.046021L507.605316,288.271240L507.887909,288.825684L508.327850,289.265625L529.344360,304.535034L529.898804,304.817505L530.513428,304.914917L735.785278,304.914917L770.693115,313.265503L747.360474,340.539642L581.291992,461.195404L580.851929,461.635406L580.569458,462.189850L572.541992,486.896210L572.444580,487.510834L572.541992,488.125397L635.974365,683.350586L638.819580,719.130493L605.670166,705.367920L439.601776,584.712097L439.047272,584.429626L438.432709,584.332275L412.454865,584.332275L411.840302,584.429565L411.285858,584.712097L245.217438,705.367920L212.068024,719.130493L214.913239,683.350586L278.345734,488.125458L278.443085,487.510834L278.345734,486.896271L270.318146,462.189850L270.035675,461.635406L269.595612,461.195465L103.527252,340.539642L80.194519,313.265503L115.102386,304.914917L320.374298,304.914917L320.988861,304.817505L321.543304,304.535034L342.559845,289.265625L342.999786,288.825684L343.282318,288.271240L406.714813,93.046021L427.140472,59.653442L427.310272,59.302490L427.408417,58.925171L427.431061,58.535889L427.377350,58.149780L427.249298,57.781616L427.051910,57.445312L426.792633,57.154175L426.481659,56.919067L426.130707,56.749268L425.753387,56.651123L425.364105,56.628418L424.977997,56.682251L424.609711,56.810181L424.273529,57.007568L423.982330,57.266846L423.747223,57.577881L403.199249,91.170654L339.699066,286.427490L319.728058,300.937256L114.867828,300.937256L76.106903,310.153442L75.723938,310.287598L75.376251,310.496582L75.078186,310.771973L74.842163,311.102051L74.678131,311.473022L74.592773,311.869751L74.589691,312.275513L74.669006,312.673462L74.827454,313.046875L75.058319,313.380493L100.657196,343.303558L266.734833,464.033600L274.363068,487.510834L211.057770,682.344482L207.845184,722.056396L207.854462,722.461975L207.945831,722.857300L208.115509,723.225830L208.356476,723.552246L208.658661,723.822998L209.009613,724.026733L209.394501,724.155029L209.797455,724.202637L210.201691,724.167358L210.590302,724.050842L246.959259,708.951599L413.101105,588.309937L437.786530,588.309937L603.521973,708.723816L640.297363,724.050842L640.686035,724.167358L641.090210,724.202637L641.493164,724.155029L641.878052,724.026794L642.229004,723.822998L642.531250,723.552246L642.772095,723.225830L642.941895,722.857300L643.033325,722.461975L643.042480,722.056396L639.921021,682.801392L576.524536,487.510834L584.152832,464.033600L749.888184,343.619720L775.829346,313.380493L776.060181,313.046875L776.218628,312.673462L776.297974,312.275513L776.294922,311.869751L776.209595,311.473022L776.045532,311.102051L775.809448,310.771973L775.511353,310.496582L775.163696,310.287598L774.780762,310.153442L736.482544,300.991821L531.159546,300.937256L511.188690,286.427490L447.883331,91.593872z" fill="#000000" stroke="none" fill-opacity="1" />
				<path d="M479.362885,299.737305L479.468475,300.112671L479.645355,300.460083L479.886627,300.766357L480.182953,301.019653L480.522980,301.210327L480.893768,301.331055L481.280914,301.376953L481.669647,301.346558L482.044891,301.240845L482.392365,301.064087L482.698700,300.822754L482.951996,300.526489L483.142609,300.186401L483.263275,299.815674L483.309235,299.428467L483.278839,299.039795L478.296906,271.071289L430.601654,124.219238L430.389374,123.768066L430.071625,123.383911L429.668304,123.090942L429.204803,122.907471L428.710175,122.844971L422.177521,122.844971L421.682892,122.907471L421.219391,123.090942L420.816071,123.383911L420.498322,123.768188L420.286041,124.219238L372.657318,270.805420L367.608856,299.039795L367.581146,299.500244L367.660309,299.954712L367.842072,300.378784L368.116608,300.749512L368.469208,301.046997L368.880829,301.255249L369.329376,301.363159L398.745941,304.900635L451.904205,304.914917L481.558258,301.363159L481.938995,301.278809L482.295868,301.121948L482.615387,300.898438L482.885040,300.616943L483.094635,300.288208L483.236053,299.924805L483.303802,299.540894L483.295441,299.151123L483.211212,298.770386L483.054291,298.413452L482.830780,298.094116L482.549164,297.824463L482.220428,297.614868L481.857147,297.473389L481.473114,297.405518L481.083405,297.413940L451.785065,300.937256L399.102570,300.937256L371.893951,297.665283L376.482697,271.903931L423.622467,126.822632L427.265228,126.822632L474.404938,271.903931z" fill="#000000" stroke="none" fill-opacity="1" />
				<path d="M534.990234,446.723419L535.073853,446.342621L535.081421,445.952789L535.012939,445.568939L534.870728,445.205963L534.660522,444.877594L534.390381,444.596527L534.070557,444.373566L533.713257,444.217377L533.332520,444.133820L532.942627,444.126190L532.558838,444.194672L532.195801,444.336761L531.867432,444.546967L531.586426,444.817230L531.363403,445.136993L531.207275,445.494293L522.993286,470.774200L438.411163,532.226807L412.476471,532.226807L327.894318,470.774261L319.880096,446.108917L352.187592,346.676666L373.169281,331.432495L477.718475,331.432495L498.700104,346.676544L531.207275,446.723419L531.363403,447.080597L531.586426,447.400482L531.867432,447.670685L532.195801,447.880890L532.558838,448.022980L532.942627,448.091522L533.332520,448.083893L533.713257,448.000336L534.070557,447.844086L534.390381,447.621185L534.660522,447.340118L534.870728,447.011749L535.012939,446.648651L535.081421,446.264862L535.073853,445.875092L534.990234,445.494293L502.283417,344.832916L502.000824,344.278412L501.560883,343.838470L479.533661,327.834717L478.979279,327.552246L478.364655,327.454956L372.523041,327.454956L371.908417,327.552246L371.354034,327.834717L349.326813,343.838470L348.886810,344.278473L348.604279,344.832916L315.897369,445.494293L315.800079,446.108917L315.897369,446.723419L324.311066,472.618011L324.593597,473.172455L325.033539,473.612396L410.661224,535.824585L411.215668,536.107056L411.830231,536.204468L439.057404,536.204468L439.671967,536.107056L440.226349,535.824585L525.854126,473.612396L526.294067,473.172394L526.576538,472.617950z" fill="#000000" stroke="none" fill-opacity="1" />
				<path d="M560.791870,440.468781L560.989624,440.804779L561.249146,441.095734L561.560425,441.330475L561.911621,441.499969L562.288940,441.597687L562.678223,441.619965L563.064331,441.565765L563.432495,441.437347L563.768433,441.239594L564.059448,440.980072L564.294189,440.668732L564.463623,440.317657L564.561401,439.940277L564.583618,439.550995L564.529419,439.164886L564.401001,438.796783L551.996582,412.021149L535.716675,361.917084L530.420654,335.029053L556.338989,331.432495L708.886597,331.432495L710.012207,334.896973L586.598755,424.562225L561.659668,437.878326L561.335327,438.094818L561.059570,438.370453L560.842773,438.694427L560.693481,439.054596L560.617310,439.436981L560.617065,439.826813L560.692993,440.209259L560.842041,440.569550L561.058594,440.893829L561.334106,441.169647L561.658203,441.386322L562.018311,441.535675L562.400635,441.611969L562.790527,441.612091L563.172974,441.536163L563.533203,441.387177L588.593384,428.006317L713.519287,337.265625L713.882690,336.924438L714.149780,336.503418L714.303833,336.029297L714.335083,335.531738L714.241821,335.042114L712.223022,328.829102L712.010742,328.378052L711.692993,327.993896L711.289673,327.700928L710.826172,327.517456L710.331543,327.454956L556.201660,327.454956L527.789185,331.378418L527.342651,331.494385L526.934937,331.710083L526.587769,332.014038L526.320068,332.389648L526.146118,332.816895L526.075195,333.272827L526.111206,333.732788L531.837036,362.802765L548.250366,413.363617z" fill="#000000" stroke="none" fill-opacity="1" />
				<path d="M286.486664,438.796783L286.358185,439.164948L286.304047,439.550995L286.326324,439.940277L286.423981,440.317719L286.593536,440.668793L286.828278,440.980133L287.119232,441.239655L287.455170,441.437408L287.823334,441.565887L288.209381,441.619965L288.598663,441.597809L288.976105,441.499969L289.327240,441.330536L289.638519,441.095795L289.898041,440.804840L290.095795,440.468842L302.550385,413.585114L318.990753,363.032990L324.776459,333.732788L324.812531,333.272827L324.741608,332.816895L324.567657,332.389648L324.299896,332.014038L323.952789,331.710083L323.545013,331.494385L323.098480,331.378418L294.959381,327.473755L140.556183,327.454956L140.061554,327.517334L139.598053,327.700928L139.194733,327.993896L138.876923,328.378052L138.664703,328.829102L136.645966,335.042114L136.552582,335.531738L136.583832,336.029297L136.737885,336.503418L137.005035,336.924438L137.368439,337.265625L262.062042,427.860992L287.354462,441.387177L287.714752,441.536285L288.097137,441.612152L288.487030,441.611969L288.869415,441.535736L289.229523,441.386383L289.553619,441.169647L289.829132,440.893890L290.045624,440.569550L290.194672,440.209320L290.270538,439.826874L290.270355,439.437042L290.194183,439.054596L290.044769,438.694550L289.828033,438.370453L289.552216,438.094879L289.227997,437.878387L264.288971,424.562286L140.875458,334.897095L142.001129,331.432495L294.548676,331.432495L320.467010,335.029053L315.170990,361.917084L298.891144,412.021149z" fill="#000000" stroke="none" fill-opacity="1" />
				<path d="M602.888916,667.337158L603.045166,667.694336L603.268066,668.014160L603.549194,668.284424L603.877563,668.494568L604.240601,668.636719L604.624390,668.705200L605.014160,668.697571L605.395020,668.614014L605.752197,668.457764L606.072021,668.234863L606.342285,667.953796L606.552490,667.625488L606.694580,667.262329L606.763184,666.878540L606.755493,666.488770L606.671875,666.107971L559.043213,519.521729L546.531738,493.712189L546.283447,493.323395L545.952271,493.002228L545.556030,492.766022L545.115967,492.627472L544.655884,492.594025L544.200439,492.667450L543.774170,492.843903L517.896362,507.272614L474.882050,538.506836L452.978973,558.810425L452.679535,559.161316L452.468903,559.571777L452.358490,560.019775L452.354340,560.481018L452.456573,560.930908L452.659576,561.345093L452.952728,561.701416L473.422699,581.400146L598.326416,672.171326L598.763306,672.411499L599.246094,672.535461L599.744629,672.535522L600.227417,672.411499L600.664307,672.171326L605.949463,668.331543L606.240845,668.072510L606.476196,667.761719L606.646240,667.410889L606.744751,667.033691L606.767822,666.644409L606.714355,666.258301L606.586548,665.889893L606.389404,665.553528L606.130493,665.262085L605.819580,665.026855L605.468872,664.856689L605.091553,664.758179L604.702271,664.735229L604.316162,664.788696L603.947754,664.916382L603.611450,665.113525L599.495361,668.104004L476.081818,578.438721L457.227386,560.294678L477.316437,541.654785L519.937500,510.688751L543.873047,497.342987L555.302734,520.881470z" fill="#000000" stroke="none" fill-opacity="1" />
				<path d="M250.223236,668.953308L249.931793,669.212280L249.696503,669.523193L249.526337,669.873962L249.427887,670.251221L249.404938,670.640381L249.458405,671.026611L249.586090,671.394958L249.783234,671.731323L250.042206,672.022766L250.353119,672.258057L250.703888,672.428223L251.081146,672.526611L251.470367,672.549561L251.856537,672.496216L252.224945,672.368469L252.561249,672.171326L377.254913,581.576050L397.934906,561.701416L398.227936,561.345093L398.431061,560.930908L398.533295,560.481018L398.529083,560.019714L398.418732,559.571777L398.208099,559.161316L397.908600,558.810425L376.189362,538.657959L333.191803,507.400726L307.113495,492.843964L306.687225,492.667511L306.231781,492.594086L305.771637,492.627533L305.331635,492.766083L304.935333,493.002289L304.604156,493.323456L304.355865,493.712250L291.946930,519.267578L244.215729,666.107910L244.122284,666.597656L244.153595,667.095215L244.307648,667.569336L244.574799,667.990234L244.938202,668.331543L250.223236,672.171326L250.559601,672.368469L250.927948,672.496216L251.314178,672.549561L251.703400,672.526611L252.080597,672.428223L252.431427,672.258057L252.742279,672.022766L253.001251,671.731323L253.198395,671.394958L253.326141,671.026611L253.379547,670.640381L253.356598,670.251221L253.258148,669.873962L253.087982,669.523193L252.852692,669.212280L252.561249,668.953308L248.445221,665.962830L295.585052,520.881470L307.014679,497.342987L330.950165,510.688751L373.571198,541.654785L393.660248,560.294678L374.805817,578.438721z" fill="#000000" stroke="none" fill-opacity="1" />
			</g>
			<g id="layer.Star.Fills.uuid_0x4">
				<polygon points="528.062500,333.348389 500.391937,345.447418 533.098755,446.108795 562.596436,439.632782 550.141846,412.749054 533.788452,362.418365" fill="#FEFEFE" stroke="none" fill-opacity="1" />
				<polygon points="454.331757,560.268372 439.057404,534.215576 411.830231,534.215576 396.555878,560.268372 412.454865,586.321106 438.432709,586.321106" fill="#FEFEFE" stroke="none" fill-opacity="1" />
				<polygon points="474.801727,579.967041 454.331757,560.268372 438.432709,586.321106 604.690918,707.114746 599.495361,670.562256" fill="#FEFEFE" stroke="none" fill-opacity="1" />
				<polygon points="599.495361,670.562256 604.690918,707.114746 641.059937,722.213989 637.938477,682.959106 604.780396,666.722534" fill="#FEFEFE" stroke="none" fill-opacity="1" />
				<polygon points="736.019897,302.926025 710.331543,329.443726 712.350342,335.656616 748.719238,342.010712 774.318115,312.087646" fill="#FEFEFE" stroke="none" fill-opacity="1" />
				<polygon points="530.513428,302.926025 528.062500,333.348389 556.201660,329.443726 710.331543,329.443726 736.019897,302.926025" fill="#FEFEFE" stroke="none" fill-opacity="1" />
				<polygon points="246.107208,666.722534 212.949249,682.959106 209.827728,722.213989 246.196686,707.114746 251.392242,670.562256" fill="#FEFEFE" stroke="none" fill-opacity="1" />
				<polygon points="481.320831,299.388550 478.364655,329.443726 500.391937,345.447418 528.062500,333.348389 530.513428,302.926025 509.496918,287.656616" fill="#FEFEFE" stroke="none" fill-opacity="1" />
				<polygon points="369.566864,299.388550 372.523041,329.443726 478.364655,329.443726 481.320831,299.388550 451.904205,302.926025 398.983429,302.926025" fill="#FEFEFE" stroke="none" fill-opacity="1" />
				<polygon points="574.433472,487.510834 544.742676,494.580963 557.151733,520.136230 604.780396,666.722534 637.938477,682.959106" fill="#FEFEFE" stroke="none" fill-opacity="1" />
				<polygon points="251.392242,670.562256 246.196686,707.114746 412.454865,586.321106 396.555878,560.268372 376.085907,579.967041" fill="#FEFEFE" stroke="none" fill-opacity="1" />
				<polygon points="320.374298,302.926025 322.825104,333.348389 350.495758,345.447418 372.523041,329.443726 369.566864,299.388550 341.390839,287.656616" fill="#FEFEFE" stroke="none" fill-opacity="1" />
				<polygon points="114.867828,302.926025 140.556183,329.443726 294.686005,329.443726 322.825104,333.348389 320.374298,302.926025" fill="#FEFEFE" stroke="none" fill-opacity="1" />
				<polygon points="293.735931,520.136353 306.144928,494.581024 276.454254,487.510834 212.949249,682.959106 246.107208,666.722534" fill="#FEFEFE" stroke="none" fill-opacity="1" />
				<polygon points="102.168488,342.010712 138.537445,335.656738 140.556183,329.443726 114.867828,302.926025 76.569580,312.087646" fill="#FEFEFE" stroke="none" fill-opacity="1" />
				<polygon points="276.454254,487.510834 306.144928,494.581024 326.202545,472.003448 317.788910,446.108917 288.291229,439.632782 268.426666,462.804413" fill="#FEFEFE" stroke="none" fill-opacity="1" />
				<polygon points="544.742676,494.580963 524.685059,472.003387 439.057404,534.215576 454.331757,560.268372 476.050995,540.115845 518.864868,509.009735" fill="#FEFEFE" stroke="none" fill-opacity="1" />
				<polygon points="268.426666,462.804413 288.291229,439.632782 263.231110,426.251984 138.537445,335.656738 102.168488,342.010712" fill="#FEFEFE" stroke="none" fill-opacity="1" />
				<polygon points="306.144928,494.581024 332.022797,509.009735 374.836578,540.115845 396.555878,560.268372 411.830231,534.215576 326.202545,472.003448" fill="#FEFEFE" stroke="none" fill-opacity="1" />
				<polygon points="288.291229,439.632782 317.788910,446.108917 350.495758,345.447418 322.825104,333.348389 317.099213,362.418427 300.745758,412.749054" fill="#FEFEFE" stroke="none" fill-opacity="1" />
				<polygon points="341.390839,287.656616 369.566864,299.388550 374.548798,271.420044 422.177521,124.833862 404.895782,92.208374" fill="#FEFEFE" stroke="none" fill-opacity="1" />
				<polygon points="404.895782,92.208374 422.177521,124.833862 428.710175,124.833862 445.991852,92.208374 425.443878,58.615601" fill="#FEFEFE" stroke="none" fill-opacity="1" />
				<polygon points="445.991852,92.208374 428.710175,124.833862 476.338898,271.420044 481.320831,299.388550 509.496918,287.656616" fill="#FEFEFE" stroke="none" fill-opacity="1" />
				<polygon points="562.596436,439.632782 533.098755,446.108795 524.685059,472.003387 544.742676,494.580963 574.433472,487.510834 582.460938,462.804413" fill="#FEFEFE" stroke="none" fill-opacity="1" />
				<polygon points="587.656616,426.251984 562.596436,439.632782 582.460938,462.804413 748.719238,342.010712 712.350342,335.656616" fill="#FEFEFE" stroke="none" fill-opacity="1" />
			</g>
			<g id="layer.Fills.uuid_0x5">
				<polygon points="566.871582,36.517578 425.443878,36.517578 425.443878,58.615601 445.991852,92.208374 509.496918,287.656616 530.513428,302.926025 736.019897,302.926025 774.318115,312.087646 814.369995,284.016113 806.420410,257.745728 793.093018,248.722046 602.165649,57.794556 593.141846,44.467285" fill="#0B0028" stroke="none" fill-opacity="1" />
				<polygon points="257.745819,44.467285 248.722015,57.794556 57.794708,248.722046 44.467407,257.745850 36.517700,284.016113 76.569580,312.087646 114.867828,302.926025 320.374298,302.926025 341.390839,287.656616 404.895782,92.208374 425.443878,58.615601 425.443878,36.517578 284.016205,36.517578" fill="#0B0028" stroke="none" fill-opacity="1" />
				<polygon points="224.467255,57.464722 111.919281,111.919189 57.464752,224.467163" fill="#0B0028" stroke="none" fill-opacity="1" />
				<polygon points="738.968384,111.919189 626.420410,57.464722 793.422974,224.467163" fill="#0B0028" stroke="none" fill-opacity="1" />
				<polygon points="814.369995,284.016113 774.318115,312.087646 748.719238,342.010712 582.460938,462.804413 574.433472,487.510834 637.938477,682.959106 641.059937,722.213989 602.165649,793.093018 793.093140,602.165588 806.420410,593.141785 814.369995,566.871460 814.369995,425.443756" fill="#0B0028" stroke="none" fill-opacity="1" />
				<polygon points="36.517700,425.443817 36.517700,566.871582 44.467407,593.141846 57.794739,602.165649 248.722015,793.093018 209.827728,722.213989 212.949249,682.959106 276.454254,487.510834 268.426666,462.804413 102.168488,342.010712 76.569580,312.087646 36.517700,284.016113" fill="#0B0028" stroke="none" fill-opacity="1" />
				<polygon points="209.827728,722.213989 248.722015,793.093018 246.196686,707.114746" fill="#0B0028" stroke="none" fill-opacity="1" />
				<polygon points="641.059937,722.213989 604.690918,707.114746 602.165649,793.093018" fill="#0B0028" stroke="none" fill-opacity="1" />
				<polygon points="284.016205,814.369995 425.443878,814.369995 566.871582,814.369995 593.141846,806.420288 602.165649,793.093018 604.690918,707.114746 438.432709,586.321106 412.454865,586.321106 246.196686,707.114746 248.722015,793.093018 257.745819,806.420288" fill="#0B0028" stroke="none" fill-opacity="1" />
				<polygon points="604.780396,666.722534 557.151733,520.136230 544.742676,494.580963 518.864868,509.009735 476.050995,540.115845 454.331757,560.268372 474.801727,579.967041 599.495361,670.562256" fill="#0B0028" stroke="none" fill-opacity="1" />
				<polygon points="251.392242,670.562256 376.085907,579.967041 396.555878,560.268372 374.836578,540.115845 332.022797,509.009735 306.144928,494.581024 293.735931,520.136353 246.107208,666.722534" fill="#0B0028" stroke="none" fill-opacity="1" />
				<polygon points="138.537445,335.656738 263.231110,426.251984 288.291229,439.632782 300.745758,412.749054 317.099213,362.418427 322.825104,333.348389 294.686005,329.443726 140.556183,329.443726" fill="#0B0028" stroke="none" fill-opacity="1" />
				<polygon points="500.391937,345.447418 478.364655,329.443726 372.523041,329.443726 350.495758,345.447418 317.788910,446.108917 326.202545,472.003448 411.830231,534.215576 439.057404,534.215576 524.685059,472.003387 533.098755,446.108795" fill="#0B0028" stroke="none" fill-opacity="1" />
				<polygon points="710.331543,329.443726 556.201660,329.443726 528.062500,333.348389 533.788452,362.418365 550.141846,412.749054 562.596436,439.632782 587.656616,426.251984 712.350342,335.656616" fill="#0B0028" stroke="none" fill-opacity="1" />
				<polygon points="481.320831,299.388550 476.338898,271.420044 428.710175,124.833862 422.177521,124.833862 374.548798,271.420044 369.566864,299.388550 398.983429,302.926025 451.904205,302.926025" fill="#0B0028" stroke="none" fill-opacity="1" />
				<polygon points="626.420410,793.422913 738.968384,738.968384 793.422974,626.420410" fill="#0B0028" stroke="none" fill-opacity="1" />
				<polygon points="111.919281,738.968506 224.467255,793.422913 57.464844,626.420532" fill="#0B0028" stroke="none" fill-opacity="1" />
			</g>
		</g>
	</g>
</svg>
