<?xml version="1.0" encoding="UTF-8"?>
<!-- Generator: Blender, SVG Export for Grease Pencil - v2.0 -->
<!DOCTYPE svg PUBLIC "-//W3C//DTD SVG 1.1//EN" "http://www.w3.org/Graphics/SVG/1.1/DTD/svg11.dtd">
<svg version="1.1" x="0px" y="0px" xmlns="http://www.w3.org/2000/svg" width="915.944458px" height="915.944519px" viewBox="0 0 915.944458 915.944519">
	<g id="blender_frame.1">
		<g id="blender_object.Star.Flat.001.1.uuid_0x0">
			<g id="layer.Frame.Lines.uuid_0x1">
				<path d="M807.619507,808.470093L807.946411,808.257629L808.225586,807.985413L808.446289,807.664001L808.599976,807.305725L808.680786,806.924316L808.685791,806.534485L808.614624,806.151184L808.469971,805.789124L808.257568,805.462219L807.985352,805.183044L807.663940,804.962341L807.305542,804.808594L806.924194,804.727722L806.534302,804.722778L806.151001,804.794006L805.788940,804.938599L666.034668,877.380737L649.405640,882.612549L610.403076,895.116455L457.972137,895.116455L305.541290,895.116455L266.548920,882.615845L249.909576,877.380737L110.715546,805.229004L38.563812,666.034851L33.331909,649.405762L20.828033,610.403259L20.828033,457.972290L20.828033,305.541382L33.328583,266.549011L38.563812,249.909729L110.715454,110.715576L249.909576,38.563721L266.538727,33.331909L305.541290,20.828003L457.972137,20.828003L610.403076,20.828003L649.395386,33.328735L666.034668,38.563721L805.228882,110.715454L877.380615,249.909607L882.612427,266.538696L895.116333,305.541321L895.116333,457.972229L895.116333,610.403137L882.615723,649.395447L877.380615,666.034851L804.938477,805.789124L804.793945,806.151184L804.722656,806.534485L804.727539,806.924316L804.808472,807.305725L804.962280,807.664001L805.182983,807.985413L805.462036,808.257629L805.788940,808.470093L806.151001,808.614685L806.534302,808.685913L806.924194,808.680969L807.305542,808.600098L807.663940,808.446350L807.985352,808.225708L808.257568,807.946533L808.469971,807.619629L880.991577,667.711853L886.405151,650.604614L898.999023,611.321350L899.093994,457.972229L899.093994,305.230286L886.405029,265.339783L881.123047,248.550964L808.469971,108.324829L808.110596,107.833801L807.619507,107.474426L667.711792,34.952881L650.604492,29.539307L611.321167,16.945312L457.972137,16.850342L305.230255,16.850342L265.339752,29.539307L248.550934,34.821411L108.324860,107.474426L107.833771,107.833801L107.474426,108.324951L34.952789,248.232666L29.539215,265.339844L16.945312,304.623169L16.850372,457.972290L16.850372,610.714233L29.539246,650.604736L34.821381,667.393555L107.474426,807.619629L107.833832,808.110657L108.324860,808.470093L248.232513,880.991699L265.339752,886.405273L304.623138,898.999146L457.972137,899.094116L610.714111,899.094116L650.604492,886.405273L667.393433,881.123108z" fill="#000000" stroke="none" fill-opacity="1" />
				<path d="M797.444946,798.369141L797.777588,798.165771L798.064087,797.901367L798.293579,797.586182L798.457275,797.232300L798.548584,796.853271L798.564331,796.463684L798.503662,796.078552L798.369141,795.712646L798.165649,795.380005L797.901367,795.093445L797.586060,794.864014L797.232178,794.700439L796.853271,794.609070L796.463623,794.593384L796.078491,794.653992L795.712524,794.788574L684.756348,848.472900L848.472778,684.756470L794.788452,795.712646L794.653931,796.078552L794.593384,796.463684L794.609009,796.853271L794.700439,797.232300L794.863892,797.586182L795.093384,797.901367L795.379883,798.165771L795.712524,798.369141L796.078491,798.503723L796.463623,798.564331L796.853271,798.548645L797.232178,798.457275L797.586060,798.293701L797.901367,798.064270L798.165649,797.777710L798.369141,797.445068L857.179932,675.893188L857.316650,675.519348L857.375977,675.125732L857.355957,674.728210L857.257080,674.342590L857.083252,673.984436L856.841797,673.668030L856.541992,673.406006L856.196045,673.209045L855.817871,673.084839L855.422485,673.038452L855.025757,673.071777L854.643799,673.183350L854.291626,673.368774L853.983398,673.620728L673.620605,853.983398L673.368652,854.291626L673.183228,854.643860L673.071533,855.025940L673.038330,855.422607L673.084717,855.817993L673.208984,856.196167L673.405884,856.542114L673.667969,856.841797L673.984253,857.083313L674.342407,857.257080L674.728027,857.355957L675.125610,857.376099L675.519165,857.316650L675.893188,857.179993z" fill="#000000" stroke="none" fill-opacity="1" />
				<path d="M120.231781,794.788635L119.865875,794.653992L119.480804,794.593384L119.091156,794.609070L118.712189,794.700500L118.358307,794.864075L118.043060,795.093506L117.778717,795.380066L117.575287,795.712708L117.440704,796.078613L117.380096,796.463806L117.395782,796.853333L117.487152,797.232361L117.650787,797.586243L117.880219,797.901428L118.166779,798.165833L118.499420,798.369202L240.051239,857.179993L240.425140,857.316650L240.818695,857.376099L241.216278,857.355957L241.601837,857.257080L241.960052,857.083313L242.276459,856.841797L242.538422,856.542114L242.735443,856.196228L242.859589,855.817993L242.905975,855.422668L242.872711,855.025940L242.761078,854.643860L242.575592,854.291626L242.323761,853.983398L61.961151,673.620728L61.652893,673.368835L61.300690,673.183350L60.918610,673.071777L60.521912,673.038513L60.126526,673.084900L59.748322,673.209106L59.402405,673.406128L59.102692,673.668030L58.861176,673.984436L58.687469,674.342590L58.588531,674.728210L58.568420,675.125732L58.627899,675.519348L58.764526,675.893250L117.575287,797.445129L117.778717,797.777771L118.043060,798.064270L118.358307,798.293762L118.712189,798.457336L119.091156,798.548767L119.480804,798.564392L119.865875,798.503784L120.231781,798.369202L120.564484,798.165833L120.851044,797.901428L121.080475,797.586243L121.243988,797.232361L121.335419,796.853333L121.351105,796.463806L121.290497,796.078613L121.155914,795.712708L67.471588,684.756470L231.188019,848.472900z" fill="#000000" stroke="none" fill-opacity="1" />
				<path d="M277.434357,867.523315L277.051971,867.447510L276.662079,867.447754L276.279755,867.524170L275.919586,867.673523L275.595612,867.890381L275.320099,868.166260L275.103729,868.490540L274.954803,868.850891L274.878937,869.233276L274.879181,869.623169L274.955536,870.005493L275.104950,870.365601L275.321808,870.689575L275.597687,870.965088L275.922028,871.181519L276.282318,871.330444L304.654205,879.916138L457.972137,880.001404L610.714111,880.001404L639.661987,871.330444L640.265259,871.028381L640.732788,870.541992L650.372070,856.305603L856.305420,650.372253L870.541870,640.732910L871.028320,640.265381L871.330444,639.662109L879.916016,611.290222L880.001343,457.972229L880.001343,305.230286L871.330444,276.282349L871.028320,275.679077L870.541870,275.211487L856.305420,265.572205L650.372070,59.638916L640.732788,45.402466L640.265259,44.916138L639.661987,44.614014L611.290039,36.028320L457.972137,35.943115L305.230255,35.943115L276.282318,44.614014L275.679047,44.916138L275.211517,45.402466L265.572174,59.638916L59.638916,265.572266L45.402557,275.211548L44.916107,275.679138L44.614014,276.282349L36.028351,304.654297L35.943146,457.972290L35.943146,610.714233L44.614014,639.662231L44.916168,640.265442L45.402557,640.732971L59.638977,650.372375L265.572174,856.305603L275.211517,870.541992L275.460663,870.841858L275.763580,871.087341L276.108490,871.268982L276.482330,871.379883L276.870575,871.415710L277.258331,871.375061L277.630707,871.259644L277.973358,871.073730L278.273224,870.824524L278.518768,870.521667L278.700409,870.176697L278.811310,869.802917L278.847137,869.414673L278.806549,869.026917L278.691071,868.654541L278.505157,868.311829L268.759491,853.918335L62.317444,647.425537L48.216827,637.834900L39.920746,610.419861L39.920746,457.972290L39.920746,305.524658L48.216827,278.109680L62.026123,268.759644L268.518951,62.317383L278.109589,48.216797L305.524567,39.920776L457.972137,39.920776L610.419800,39.920776L637.834717,48.216797L647.184814,62.026123L853.626953,268.518982L867.727539,278.109680L876.023682,305.524658L876.023682,457.972229L876.023682,610.419861L867.727539,637.834778L853.918213,647.184998L647.425415,853.627075L637.834717,867.727661L610.419800,876.023743L457.972137,876.023743L305.524567,876.023743z" fill="#000000" stroke="none" fill-opacity="1" />
				<path d="M118.499420,117.575378L118.166779,117.778687L117.880219,118.043091L117.650787,118.358276L117.487152,118.712158L117.395782,119.091248L117.380096,119.480713L117.440704,119.865967L117.575287,120.231812L117.778717,120.564514L118.043060,120.851013L118.358307,121.080505L118.712189,121.244080L119.091156,121.335449L119.480804,121.351196L119.865875,121.290527L120.231781,121.155945L231.188019,67.471619L67.471588,231.188049L121.155914,120.231812L121.290497,119.865967L121.351105,119.480713L121.335419,119.091248L121.243988,118.712158L121.080475,118.358276L120.851044,118.043091L120.564484,117.778687L120.231781,117.575378L119.865875,117.440674L119.480804,117.380127L119.091156,117.395752L118.712189,117.487183L118.358307,117.650757L118.043060,117.880188L117.778717,118.166809L117.575287,118.499390L58.764465,240.051331L58.627777,240.425171L58.568390,240.818787L58.588501,241.216370L58.687408,241.601990L58.861115,241.960083L59.102661,242.276550L59.402405,242.538513L59.748260,242.735474L60.126465,242.859680L60.521820,242.906067L60.918549,242.872864L61.300629,242.761230L61.652832,242.575745L61.961090,242.323853L242.323761,61.961060L242.575592,61.652832L242.761078,61.300659L242.872711,60.918579L242.905975,60.521851L242.859589,60.126587L242.735443,59.748291L242.538422,59.402344L242.276459,59.102661L241.960052,58.861084L241.601837,58.687500L241.216278,58.588501L240.818695,58.568359L240.425140,58.627808L240.051239,58.764526z" fill="#000000" stroke="none" fill-opacity="1" />
				<path d="M795.712524,121.155945L796.078369,121.290527L796.463623,121.351196L796.853149,121.335449L797.232178,121.244080L797.586060,121.080505L797.901245,120.851013L798.165649,120.564514L798.369019,120.231812L798.503540,119.865967L798.564209,119.480713L798.548584,119.091248L798.457153,118.712158L798.293579,118.358276L798.064087,118.043091L797.777588,117.778687L797.444946,117.575378L675.893188,58.764526L675.519165,58.627808L675.125610,58.568359L674.728027,58.588501L674.342407,58.687500L673.984253,58.861084L673.667969,59.102661L673.405884,59.402344L673.208984,59.748291L673.084717,60.126587L673.038330,60.521851L673.071533,60.918579L673.183228,61.300659L673.368652,61.652832L673.620605,61.961060L853.983276,242.323792L854.291504,242.575684L854.643799,242.761169L855.025757,242.872742L855.422485,242.906006L855.817871,242.859619L856.196045,242.735413L856.541992,242.538452L856.841797,242.276428L857.083252,241.960022L857.256958,241.601929L857.355957,241.216248L857.375977,240.818726L857.316528,240.425110L857.179932,240.051270L798.369019,118.499390L798.165649,118.166809L797.901245,117.880188L797.586060,117.650757L797.232178,117.487183L796.853149,117.395752L796.463623,117.380127L796.078369,117.440674L795.712524,117.575378L795.379883,117.778687L795.093384,118.043091L794.863892,118.358276L794.700317,118.712158L794.608887,119.091248L794.593262,119.480713L794.653809,119.865967L794.788452,120.231812L848.472778,231.187988L684.756348,67.471619z" fill="#000000" stroke="none" fill-opacity="1" />
			</g>
			<g id="layer.Frame.Fills.uuid_0x2">
				<polygon points="265.941803,884.509705 276.858307,869.426880 267.112640,855.033447 255.444733,865.750488 249.147797,879.225952" fill="#FEFEFE" stroke="none" fill-opacity="1" />
				<polygon points="119.365631,796.578918 109.240173,806.704346 249.147797,879.225952 255.444733,865.750488 240.917450,855.389709" fill="#FEFEFE" stroke="none" fill-opacity="1" />
				<polygon points="305.230255,897.105286 305.230255,878.012573 276.858307,869.426880 265.941803,884.509705" fill="#FEFEFE" stroke="none" fill-opacity="1" />
				<polygon points="855.389648,675.027039 865.750366,660.499756 855.033325,648.831787 648.831665,855.033447 660.499634,865.750488 675.026978,855.389709" fill="#FEFEFE" stroke="none" fill-opacity="1" />
				<polygon points="457.972137,878.012573 305.230255,878.012573 305.230255,897.105286 457.972137,897.105286" fill="#FEFEFE" stroke="none" fill-opacity="1" />
				<polygon points="650.002563,884.509705 666.796509,879.225952 660.499634,865.750488 648.831665,855.033447 639.086060,869.426880" fill="#FEFEFE" stroke="none" fill-opacity="1" />
				<polygon points="796.578735,796.578857 675.026978,855.389709 660.499634,865.750488 666.796509,879.225952 806.704224,806.704346" fill="#FEFEFE" stroke="none" fill-opacity="1" />
				<polygon points="610.714111,897.105286 650.002563,884.509705 639.086060,869.426880 610.714111,878.012573" fill="#FEFEFE" stroke="none" fill-opacity="1" />
				<polygon points="60.554779,240.917480 50.194000,255.444702 60.911011,267.112732 267.112640,60.911133 255.444733,50.193970 240.917450,60.554810" fill="#FEFEFE" stroke="none" fill-opacity="1" />
				<polygon points="457.972137,878.012573 457.972137,897.105286 610.714111,897.105286 610.714111,878.012573" fill="#FEFEFE" stroke="none" fill-opacity="1" />
				<polygon points="265.941803,31.434692 249.147797,36.718506 255.444733,50.193970 267.112640,60.911133 276.858307,46.517578" fill="#FEFEFE" stroke="none" fill-opacity="1" />
				<polygon points="119.365631,119.365601 240.917450,60.554810 255.444733,50.193970 249.147797,36.718506 109.240112,109.240173" fill="#FEFEFE" stroke="none" fill-opacity="1" />
				<polygon points="305.230255,18.839233 265.941803,31.434692 276.858307,46.517578 305.230255,37.931885" fill="#FEFEFE" stroke="none" fill-opacity="1" />
				<polygon points="855.389526,240.917480 675.026978,60.554810 660.499634,50.193970 648.831665,60.911133 855.033325,267.112732 865.750366,255.444702" fill="#FEFEFE" stroke="none" fill-opacity="1" />
				<polygon points="457.972137,37.931885 457.972137,18.839233 305.230255,18.839233 305.230255,37.931885" fill="#FEFEFE" stroke="none" fill-opacity="1" />
				<polygon points="650.002563,31.434692 639.086060,46.517578 648.831665,60.911133 660.499634,50.193970 666.796509,36.718506" fill="#FEFEFE" stroke="none" fill-opacity="1" />
				<polygon points="796.578735,119.365601 806.704224,109.240112 666.796509,36.718506 660.499634,50.193970 675.026978,60.554810" fill="#FEFEFE" stroke="none" fill-opacity="1" />
				<polygon points="610.714111,18.839233 610.714111,37.931885 639.086060,46.517578 650.002563,31.434692" fill="#FEFEFE" stroke="none" fill-opacity="1" />
				<polygon points="457.972137,37.931885 610.714111,37.931885 610.714111,18.839233 457.972137,18.839233" fill="#FEFEFE" stroke="none" fill-opacity="1" />
				<polygon points="31.434723,265.941895 46.517609,276.858398 60.911011,267.112732 50.194000,255.444702 36.718475,249.147888" fill="#FEFEFE" stroke="none" fill-opacity="1" />
				<polygon points="119.365631,119.365601 109.240112,109.240173 36.718475,249.147888 50.194000,255.444702 60.554779,240.917480" fill="#FEFEFE" stroke="none" fill-opacity="1" />
				<polygon points="18.839233,305.230347 37.931946,305.230347 46.517609,276.858398 31.434723,265.941895" fill="#FEFEFE" stroke="none" fill-opacity="1" />
				<polygon points="37.931946,457.972290 37.931946,305.230347 18.839233,305.230347 18.839233,457.972290" fill="#FEFEFE" stroke="none" fill-opacity="1" />
				<polygon points="31.434753,650.002686 36.718536,666.796631 50.194061,660.499817 60.911133,648.831848 46.517609,639.086121" fill="#FEFEFE" stroke="none" fill-opacity="1" />
				<polygon points="119.365631,796.578918 60.554810,675.027039 50.194061,660.499817 36.718536,666.796631 109.240173,806.704346" fill="#FEFEFE" stroke="none" fill-opacity="1" />
				<polygon points="18.839233,610.714233 31.434753,650.002686 46.517609,639.086121 37.931946,610.714233" fill="#FEFEFE" stroke="none" fill-opacity="1" />
				<polygon points="37.931946,457.972290 18.839233,457.972290 18.839233,610.714233 37.931946,610.714233" fill="#FEFEFE" stroke="none" fill-opacity="1" />
				<polygon points="884.509521,265.941833 879.225830,249.147827 865.750366,255.444702 855.033325,267.112732 869.426880,276.858337" fill="#FEFEFE" stroke="none" fill-opacity="1" />
				<polygon points="796.578735,119.365601 855.389526,240.917480 865.750366,255.444702 879.225830,249.147827 806.704224,109.240112" fill="#FEFEFE" stroke="none" fill-opacity="1" />
				<polygon points="897.105225,305.230286 884.509521,265.941833 869.426880,276.858337 878.012451,305.230286" fill="#FEFEFE" stroke="none" fill-opacity="1" />
				<polygon points="878.012451,457.972229 897.105225,457.972229 897.105225,305.230286 878.012451,305.230286" fill="#FEFEFE" stroke="none" fill-opacity="1" />
				<polygon points="884.509644,650.002625 869.426880,639.086060 855.033325,648.831787 865.750366,660.499756 879.225952,666.796631" fill="#FEFEFE" stroke="none" fill-opacity="1" />
				<polygon points="796.578735,796.578857 806.704224,806.704346 879.225952,666.796631 865.750366,660.499756 855.389648,675.027039" fill="#FEFEFE" stroke="none" fill-opacity="1" />
				<polygon points="897.105225,610.714172 878.012451,610.714172 869.426880,639.086060 884.509644,650.002625" fill="#FEFEFE" stroke="none" fill-opacity="1" />
				<polygon points="878.012451,457.972229 878.012451,610.714172 897.105225,610.714172 897.105225,457.972229" fill="#FEFEFE" stroke="none" fill-opacity="1" />
				<polygon points="60.554810,675.027039 240.917450,855.389709 255.444733,865.750488 267.112640,855.033447 60.911133,648.831848 50.194061,660.499817" fill="#FEFEFE" stroke="none" fill-opacity="1" />
			</g>
			<g id="layer.Star.Lines.uuid_0x3">
				<path d="M459.668793,60.760010L459.433685,60.448975L459.142487,60.189819L458.806305,59.992310L458.438019,59.864258L458.051910,59.810669L457.662628,59.833252L457.285370,59.931396L456.934418,60.101196L456.623383,60.336304L456.364105,60.627563L456.166718,60.963745L456.038666,61.332031L455.984955,61.718140L456.007599,62.107300L456.105743,62.484741L456.275604,62.835571L478.345001,98.915588L546.857910,309.776672L547.140503,310.331055L547.580444,310.771118L570.278320,327.262024L570.832642,327.544495L571.447266,327.641907L793.159790,327.641907L831.131470,336.725403L805.750854,366.393433L626.381714,496.712646L625.941650,497.152710L625.659180,497.707092L616.989502,524.390015L616.892090,525.004578L616.989502,525.619202L685.502319,736.480225L688.597290,775.400574L652.538208,760.430054L473.169220,630.110718L472.614716,629.828247L472.000153,629.730896L443.944122,629.730896L443.329498,629.828247L442.775116,630.110718L263.406036,760.430054L227.347015,775.400574L230.442047,736.480286L298.954926,525.619202L299.052216,525.004639L298.954926,524.390076L290.285126,497.707153L290.002594,497.152710L289.562592,496.712769L110.193512,366.393433L84.812897,336.725403L122.784637,327.641907L344.497040,327.641907L345.111664,327.544495L345.666107,327.262024L368.363922,310.771118L368.803925,310.331177L369.086395,309.776672L437.599335,98.915588L459.668793,62.835571L459.838654,62.484741L459.936737,62.107300L459.959442,61.718140L459.905670,61.332031L459.777679,60.963745L459.580231,60.627563L459.321014,60.336304L459.009979,60.101196L458.659027,59.931396L458.281708,59.833252L457.892487,59.810669L457.506317,59.864258L457.138092,59.992310L456.801910,60.189819L456.510651,60.448975L456.275604,60.760010L434.083710,97.040222L365.503143,307.932922L343.850861,323.664246L122.550079,323.664246L80.725311,333.613281L80.342346,333.747559L79.994629,333.956543L79.696564,334.231873L79.460571,334.561890L79.296509,334.932983L79.211151,335.329651L79.208099,335.735413L79.287415,336.133362L79.445831,336.506897L79.676697,336.840454L107.323456,369.157410L286.701813,499.550903L294.972260,525.004639L226.586517,735.474182L223.124176,778.326416L223.133453,778.732056L223.224823,779.127380L223.394501,779.495911L223.635529,779.822388L223.937775,780.093079L224.288605,780.296875L224.673492,780.425171L225.076508,780.472717L225.480682,780.437439L225.869354,780.320923L265.147858,764.013733L444.590302,633.708618L471.353973,633.708618L650.390015,763.785889L690.074951,780.320923L690.463623,780.437439L690.867920,780.472717L691.270874,780.425110L691.655762,780.296814L692.006592,780.093079L692.308838,779.822327L692.549805,779.495911L692.719482,779.127380L692.810913,778.732056L692.820190,778.326416L689.448853,735.931091L620.972046,525.004578L629.242432,499.550842L808.278564,369.473511L836.267578,336.840454L836.498535,336.506897L836.656982,336.133362L836.736328,335.735413L836.733276,335.329651L836.647827,334.932983L836.483765,334.561890L836.247681,334.231873L835.949707,333.956543L835.601929,333.747559L835.219116,333.613281L793.857056,323.718750L572.093506,323.664246L550.441284,307.932922L482.055573,97.463440z" fill="#000000" stroke="none" fill-opacity="1" />
				<path d="M516.361328,322.181335L516.476562,322.580811L516.672485,322.947571L516.940308,323.265564L517.268311,323.520996L517.642334,323.702637L518.046021,323.802551L518.461548,323.816284L518.870850,323.743408L519.256104,323.586975L519.600342,323.353882L519.888672,323.054260L520.108398,322.701294L520.250000,322.310364L520.307007,321.898499L520.277344,321.483765L514.896851,291.277832L463.391327,132.698853L463.179047,132.247742L462.861237,131.863647L462.457916,131.570618L461.994415,131.387085L461.499786,131.324524L454.444550,131.324524L453.949982,131.387085L453.486420,131.570618L453.083099,131.863647L452.765350,132.247742L452.553070,132.698853L401.114044,291.011963L395.667023,321.483765L395.639313,321.944275L395.718475,322.398804L395.900238,322.822815L396.174774,323.193542L396.527374,323.491028L396.938995,323.699341L397.387543,323.807190L429.157501,327.627625L486.549408,327.641907L518.556763,323.807190L518.937378,323.722900L519.294434,323.565979L519.613770,323.342468L519.883545,323.060913L520.093018,322.732117L520.234497,322.368835L520.302368,321.984863L520.293945,321.595093L520.209717,321.214417L520.052734,320.857544L519.829224,320.538086L519.547729,320.268372L519.218994,320.058777L518.855591,319.917358L518.471680,319.849609L518.081787,319.857971L486.430267,323.664246L429.514130,323.664246L399.952057,320.109192L404.939423,292.110474L455.889496,135.302185L460.054840,135.302185L511.004974,292.110474z" fill="#000000" stroke="none" fill-opacity="1" />
				<path d="M576.130981,480.905029L576.217407,480.498352L576.217407,480.082581L576.130981,479.675903L575.961792,479.296021L575.717407,478.959717L575.408447,478.681519L575.048462,478.473572L574.652954,478.345093L574.239502,478.301636L573.825928,478.345093L573.430542,478.473572L573.070435,478.681519L572.761475,478.959717L572.517090,479.296021L572.347900,479.675903L563.460938,507.027405L472.028595,573.456909L443.915680,573.456909L352.483368,507.027466L343.796051,480.290527L378.720062,372.805359L401.463898,356.281006L514.480469,356.281006L537.224243,372.805298L572.347900,480.905029L572.517090,481.284912L572.761475,481.621216L573.070435,481.899475L573.430542,482.107361L573.825928,482.235840L574.239502,482.279297L574.652954,482.235840L575.048462,482.107361L575.408447,481.899475L575.717407,481.621216L575.961792,481.284912L576.130981,480.905029L576.217407,480.498352L576.217407,480.082581L576.130981,479.675903L540.807495,370.961548L540.525024,370.407166L540.085083,369.967224L516.295654,352.683167L515.741333,352.400635L515.126587,352.303345L400.817657,352.303345L400.203156,352.400635L399.648712,352.683167L375.859283,369.967224L375.419281,370.407166L375.136810,370.961609L339.813324,479.675903L339.716034,480.290527L339.813324,480.905090L348.900116,508.871216L349.182587,509.425659L349.622589,509.865601L442.100494,577.054810L442.654938,577.337280L443.269501,577.434570L472.674774,577.434570L473.289337,577.337280L473.843842,577.054749L566.321655,509.865601L566.761719,509.425598L567.044189,508.871155z" fill="#000000" stroke="none" fill-opacity="1" />
				<path d="M604.292358,474.132324L604.490112,474.468323L604.749634,474.759338L605.061035,474.994019L605.412109,475.163452L605.789551,475.261230L606.178711,475.283447L606.564941,475.229370L606.932983,475.100952L607.269043,474.903137L607.559937,474.643616L607.794678,474.332336L607.964233,473.981262L608.061890,473.603760L608.084106,473.214478L608.030029,472.828430L607.901611,472.460266L594.500732,443.533997L576.912720,389.403442L571.158447,360.189880L599.328003,356.281006L764.205933,356.281006L765.493042,360.242432L632.104004,457.155334L605.160278,471.541931L604.835938,471.758423L604.560181,472.033936L604.343384,472.358032L604.194092,472.718140L604.117798,473.100464L604.117554,473.490417L604.193604,473.872803L604.342529,474.233032L604.558960,474.557373L604.834595,474.833130L605.158691,475.049927L605.518921,475.199280L605.901245,475.275452L606.291016,475.275696L606.673462,475.199768L607.033691,475.050720L634.098633,460.599365L769.000122,362.611084L769.363525,362.269836L769.630737,361.848938L769.784668,361.374756L769.816040,360.877197L769.722534,360.387512L767.542358,353.677551L767.330078,353.226501L767.012329,352.842346L766.609009,352.549377L766.145508,352.365784L765.650879,352.303345L599.190674,352.303345L568.526978,356.539246L568.080566,356.655212L567.672729,356.870911L567.325684,357.174805L567.057861,357.550537L566.883789,357.977722L566.812988,358.433594L566.848999,358.893555L573.032959,390.289124L590.754517,444.876526z" fill="#000000" stroke="none" fill-opacity="1" />
				<path d="M308.042755,472.460327L307.914337,472.828430L307.860199,473.214600L307.882416,473.603821L307.980194,473.981262L308.149628,474.332397L308.384369,474.643677L308.675323,474.903137L309.011322,475.100952L309.379425,475.229370L309.765533,475.283508L310.154755,475.261292L310.532196,475.163574L310.883331,474.994019L311.194672,474.759338L311.454132,474.468384L311.651886,474.132446L325.102875,445.098022L342.851471,390.519409L349.095306,358.893555L349.131378,358.433594L349.060455,357.977722L348.886444,357.550537L348.618744,357.174866L348.271637,356.870972L347.863800,356.655212L347.417267,356.539246L317.027069,352.322205L150.293427,352.303345L149.798859,352.365784L149.335358,352.549377L148.931976,352.842346L148.614227,353.226501L148.402008,353.677551L146.221771,360.387512L146.128387,360.877258L146.159637,361.374817L146.313690,361.848938L146.580841,362.269897L146.944244,362.611145L281.613373,460.454102L308.910614,475.050781L309.270844,475.199829L309.653290,475.275696L310.043182,475.275513L310.425507,475.199341L310.785675,475.049988L311.109711,474.833191L311.385284,474.557373L311.601776,474.233154L311.750763,473.872864L311.826691,473.490479L311.826508,473.100525L311.750275,472.718201L311.600922,472.358093L311.384186,472.033997L311.108368,471.758423L310.784088,471.541992L283.840302,457.155334L150.451263,360.242432L151.738434,356.281006L316.616364,356.281006L344.785919,360.189880L339.031708,389.403564L321.443634,443.534058z" fill="#000000" stroke="none" fill-opacity="1" />
				<path d="M649.764160,719.167908L649.920532,719.525085L650.143433,719.844910L650.424438,720.115173L650.752808,720.325378L651.115845,720.467468L651.499756,720.536011L651.889404,720.528320L652.270386,720.444763L652.627563,720.288513L652.947266,720.065613L653.217651,719.784546L653.427856,719.456177L653.569824,719.093140L653.638428,718.709351L653.630737,718.319519L653.547119,717.938721L602.108154,559.625488L588.604004,531.771667L588.355713,531.382812L588.024536,531.061646L587.628296,530.825439L587.188232,530.686890L586.728149,530.653442L586.272705,530.726868L585.846436,530.903259L557.898438,546.486328L511.458954,580.208984L487.818451,602.124817L487.518890,602.475708L487.308258,602.886169L487.197968,603.334106L487.193756,603.795471L487.295868,604.245300L487.499054,604.659546L487.792023,605.015808L509.899689,626.290405L644.778809,724.309265L645.215698,724.549438L645.698608,724.673401L646.197144,724.673462L646.679932,724.549438L647.116821,724.309265L652.824707,720.162292L653.116089,719.903320L653.351440,719.592468L653.521606,719.241638L653.619995,718.864441L653.643066,718.475220L653.589600,718.088989L653.461792,717.720703L653.264648,717.384277L653.005737,717.092834L652.694824,716.857544L652.343994,716.687378L651.966797,716.588928L651.577637,716.565979L651.191406,716.619385L650.822998,716.747131L650.486694,716.944275L645.947754,720.241943L512.558838,623.329102L492.066742,603.609131L513.893311,583.356934L559.939453,549.902466L585.945190,535.402344L598.367554,560.985291z" fill="#000000" stroke="none" fill-opacity="1" />
				<path d="M268.827484,721.091248L268.535980,721.350220L268.300690,721.661133L268.130524,722.011902L268.032135,722.389160L268.009125,722.778320L268.062531,723.164551L268.190277,723.532898L268.387421,723.869263L268.646393,724.160706L268.957306,724.396057L269.308075,724.566162L269.685333,724.664551L270.074554,724.687561L270.460724,724.634155L270.829071,724.506409L271.165436,724.309265L405.834625,626.466370L428.152191,605.015808L428.445221,604.659546L428.648346,604.245300L428.750580,603.795471L428.746368,603.334106L428.636017,602.886169L428.425385,602.475708L428.125885,602.124817L404.669098,580.360107L358.246429,546.614441L330.097870,530.903320L329.671661,530.726929L329.216217,530.653442L328.756073,530.686890L328.316010,530.825500L327.919769,531.061707L327.588593,531.382874L327.340302,531.771667L313.938568,559.371399L262.397125,717.938721L262.303741,718.428406L262.335052,718.925964L262.489044,719.400085L262.756195,719.820984L263.119598,720.162231L268.827484,724.309265L269.163788,724.506409L269.532196,724.634155L269.918365,724.687561L270.307587,724.664551L270.684845,724.566162L271.035614,724.396057L271.346466,724.160706L271.605438,723.869263L271.802643,723.532898L271.930328,723.164551L271.983734,722.778320L271.960846,722.389160L271.862396,722.011902L271.692169,721.661133L271.456879,721.350220L271.165436,721.091248L266.626617,717.793640L317.576691,560.985291L329.999115,535.402405L356.004852,549.902466L402.050934,583.356995L423.877533,603.609131L403.385529,623.329102z" fill="#000000" stroke="none" fill-opacity="1" />
			</g>
			<g id="layer.Star.Fills.uuid_0x4">
				<polygon points="568.800415,358.509155 538.916016,371.576172 574.239502,480.290466 606.097046,473.296326 592.645996,444.261902 574.984375,389.904785" fill="#FEFEFE" stroke="none" fill-opacity="1" />
				<polygon points="489.171173,603.582764 472.674774,575.445740 443.269501,575.445740 426.773163,603.582764 443.944122,631.719727 472.000153,631.719727" fill="#FEFEFE" stroke="none" fill-opacity="1" />
				<polygon points="511.278717,624.857361 489.171173,603.582764 472.000153,631.719727 651.559082,762.176880 645.947754,722.700256" fill="#FEFEFE" stroke="none" fill-opacity="1" />
				<polygon points="645.947754,722.700256 651.559082,762.176880 690.837646,778.484070 687.466309,736.088745 651.655640,718.553284" fill="#FEFEFE" stroke="none" fill-opacity="1" />
				<polygon points="793.394287,325.653076 765.650879,354.292175 767.831177,361.002136 807.109619,367.864502 834.756348,335.547607" fill="#FEFEFE" stroke="none" fill-opacity="1" />
				<polygon points="571.447266,325.653076 568.800415,358.509155 599.190674,354.292175 765.650879,354.292175 793.394287,325.653076" fill="#FEFEFE" stroke="none" fill-opacity="1" />
				<polygon points="264.288605,718.553284 228.477997,736.088806 225.106720,778.484070 264.385223,762.176880 269.996429,722.700256" fill="#FEFEFE" stroke="none" fill-opacity="1" />
				<polygon points="518.319336,321.832520 515.126587,354.292175 538.916016,371.576172 568.800415,358.509155 571.447266,325.653076 548.749390,309.162109" fill="#FEFEFE" stroke="none" fill-opacity="1" />
				<polygon points="397.625031,321.832520 400.817657,354.292175 515.126587,354.292175 518.319336,321.832520 486.549408,325.653076 429.394928,325.653076" fill="#FEFEFE" stroke="none" fill-opacity="1" />
				<polygon points="618.880981,525.004578 586.814941,532.640320 600.216675,560.240112 651.655640,718.553284 687.466309,736.088745" fill="#FEFEFE" stroke="none" fill-opacity="1" />
				<polygon points="269.996429,722.700256 264.385223,762.176880 443.944122,631.719727 426.773163,603.582764 404.665619,624.857361" fill="#FEFEFE" stroke="none" fill-opacity="1" />
				<polygon points="344.497040,325.653076 347.143951,358.509155 377.028290,371.576172 400.817657,354.292175 397.625031,321.832520 367.194916,309.162109" fill="#FEFEFE" stroke="none" fill-opacity="1" />
				<polygon points="122.550079,325.653076 150.293427,354.292175 316.753754,354.292175 347.143951,358.509155 344.497040,325.653076" fill="#FEFEFE" stroke="none" fill-opacity="1" />
				<polygon points="315.727631,560.240112 329.129364,532.640381 297.063385,525.004639 228.477997,736.088806 264.288605,718.553284" fill="#FEFEFE" stroke="none" fill-opacity="1" />
				<polygon points="108.834747,367.864502 148.113251,361.002136 150.293427,354.292175 122.550079,325.653076 81.187988,335.547607" fill="#FEFEFE" stroke="none" fill-opacity="1" />
				<polygon points="297.063385,525.004639 329.129364,532.640381 350.791595,508.256653 341.704865,480.290527 309.847321,473.296387 288.393585,498.321716" fill="#FEFEFE" stroke="none" fill-opacity="1" />
				<polygon points="586.814941,532.640320 565.152710,508.256592 472.674774,575.445740 489.171173,603.582764 512.627930,581.817993 558.866821,548.223389" fill="#FEFEFE" stroke="none" fill-opacity="1" />
				<polygon points="288.393585,498.321716 309.847321,473.296387 282.782379,458.845032 148.113251,361.002136 108.834747,367.864502" fill="#FEFEFE" stroke="none" fill-opacity="1" />
				<polygon points="329.129364,532.640381 357.077423,548.223450 403.316376,581.818054 426.773163,603.582764 443.269501,575.445740 350.791595,508.256653" fill="#FEFEFE" stroke="none" fill-opacity="1" />
				<polygon points="309.847321,473.296387 341.704865,480.290527 377.028290,371.576172 347.143951,358.509155 340.960052,389.904785 323.298309,444.261963" fill="#FEFEFE" stroke="none" fill-opacity="1" />
				<polygon points="367.194916,309.162109 397.625031,321.832520 403.005463,291.626587 454.444550,133.313354 435.780304,98.077942" fill="#FEFEFE" stroke="none" fill-opacity="1" />
				<polygon points="435.780304,98.077942 454.444550,133.313354 461.499786,133.313354 480.164032,98.077942 457.972137,61.797852" fill="#FEFEFE" stroke="none" fill-opacity="1" />
				<polygon points="480.164032,98.077942 461.499786,133.313354 512.938843,291.626587 518.319336,321.832520 548.749390,309.162109" fill="#FEFEFE" stroke="none" fill-opacity="1" />
				<polygon points="606.097046,473.296326 574.239502,480.290466 565.152710,508.256592 586.814941,532.640320 618.880981,525.004578 627.550659,498.321716" fill="#FEFEFE" stroke="none" fill-opacity="1" />
				<polygon points="633.161865,458.844971 606.097046,473.296326 627.550659,498.321716 807.109619,367.864502 767.831177,361.002136" fill="#FEFEFE" stroke="none" fill-opacity="1" />
			</g>
			<g id="layer.Fills.uuid_0x5">
				<polygon points="610.714111,37.931885 457.972137,37.931885 457.972137,61.797852 480.164032,98.077942 548.749390,309.162109 571.447266,325.653076 793.394287,325.653076 834.756348,335.547607 878.012451,305.230286 869.426880,276.858337 855.033325,267.112732 648.831665,60.911133 639.086060,46.517578" fill="#0B0028" stroke="none" fill-opacity="1" />
				<polygon points="276.858307,46.517578 267.112640,60.911133 60.911011,267.112732 46.517609,276.858398 37.931946,305.230347 81.187988,335.547607 122.550079,325.653076 344.497040,325.653076 367.194916,309.162109 435.780304,98.077942 457.972137,61.797852 457.972137,37.931885 305.230255,37.931885" fill="#0B0028" stroke="none" fill-opacity="1" />
				<polygon points="240.917450,60.554810 119.365631,119.365601 60.554779,240.917480" fill="#0B0028" stroke="none" fill-opacity="1" />
				<polygon points="796.578735,119.365601 675.026978,60.554810 855.389526,240.917480" fill="#0B0028" stroke="none" fill-opacity="1" />
				<polygon points="878.012451,305.230286 834.756348,335.547607 807.109619,367.864502 627.550659,498.321716 618.880981,525.004578 687.466309,736.088745 690.837646,778.484070 648.831665,855.033447 855.033325,648.831787 869.426880,639.086060 878.012451,610.714172 878.012451,457.972229" fill="#0B0028" stroke="none" fill-opacity="1" />
				<polygon points="37.931946,457.972290 37.931946,610.714233 46.517609,639.086121 60.911133,648.831848 267.112640,855.033447 225.106720,778.484070 228.477997,736.088806 297.063385,525.004639 288.393585,498.321716 108.834747,367.864502 81.187988,335.547607 37.931946,305.230347" fill="#0B0028" stroke="none" fill-opacity="1" />
				<polygon points="225.106720,778.484070 267.112640,855.033447 264.385223,762.176880" fill="#0B0028" stroke="none" fill-opacity="1" />
				<polygon points="690.837646,778.484070 651.559082,762.176880 648.831665,855.033447" fill="#0B0028" stroke="none" fill-opacity="1" />
				<polygon points="305.230255,878.012573 457.972137,878.012573 610.714111,878.012573 639.086060,869.426880 648.831665,855.033447 651.559082,762.176880 472.000153,631.719727 443.944122,631.719727 264.385223,762.176880 267.112640,855.033447 276.858307,869.426880" fill="#0B0028" stroke="none" fill-opacity="1" />
				<polygon points="651.655640,718.553284 600.216675,560.240112 586.814941,532.640320 558.866821,548.223389 512.627930,581.817993 489.171173,603.582764 511.278717,624.857361 645.947754,722.700256" fill="#0B0028" stroke="none" fill-opacity="1" />
				<polygon points="269.996429,722.700256 404.665619,624.857361 426.773163,603.582764 403.316376,581.818054 357.077423,548.223450 329.129364,532.640381 315.727631,560.240112 264.288605,718.553284" fill="#0B0028" stroke="none" fill-opacity="1" />
				<polygon points="148.113251,361.002136 282.782379,458.845032 309.847321,473.296387 323.298309,444.261963 340.960052,389.904785 347.143951,358.509155 316.753754,354.292175 150.293427,354.292175" fill="#0B0028" stroke="none" fill-opacity="1" />
				<polygon points="538.916016,371.576172 515.126587,354.292175 400.817657,354.292175 377.028290,371.576172 341.704865,480.290527 350.791595,508.256653 443.269501,575.445740 472.674774,575.445740 565.152710,508.256592 574.239502,480.290466" fill="#0B0028" stroke="none" fill-opacity="1" />
				<polygon points="765.650879,354.292175 599.190674,354.292175 568.800415,358.509155 574.984375,389.904785 592.645996,444.261902 606.097046,473.296326 633.161865,458.844971 767.831177,361.002136" fill="#0B0028" stroke="none" fill-opacity="1" />
				<polygon points="518.319336,321.832520 512.938843,291.626587 461.499786,133.313354 454.444550,133.313354 403.005463,291.626587 397.625031,321.832520 429.394928,325.653076 486.549408,325.653076" fill="#0B0028" stroke="none" fill-opacity="1" />
				<polygon points="675.026978,855.389709 796.578735,796.578857 855.389648,675.027039" fill="#0B0028" stroke="none" fill-opacity="1" />
				<polygon points="119.365631,796.578918 240.917450,855.389709 60.554810,675.027039" fill="#0B0028" stroke="none" fill-opacity="1" />
			</g>
		</g>
	</g>
</svg>
